<?xml version="1.0" encoding="UTF-8"?>
<svg version="1.1" xmlns="http://www.w3.org/2000/svg" width="250" height="250">
<path d="M0 0 C1.0738092 -0.00287018 2.14761841 -0.00574036 3.25396729 -0.00869751 C5.51990284 -0.01073304 7.78585617 -0.00523907 10.05175781 0.00732422 C13.49064234 0.02332129 16.92834029 0.00748994 20.3671875 -0.01171875 C22.57812756 -0.009735 24.78906689 -0.0058886 27 0 C28.01495544 -0.00607269 29.02991089 -0.01214539 30.07562256 -0.0184021 C44.32531319 0.11943563 56.993798 4.8662221 67.4296875 14.66015625 C76.65216977 25.47112627 78.53277136 37.60400945 77.765625 51.3984375 C76.30287703 60.55920659 71.21942667 67.15916505 65.765625 74.3984375 C66.343125 74.64464844 66.920625 74.89085938 67.515625 75.14453125 C74.61531871 79.10113139 79.37961839 86.8156835 81.765625 94.3984375 C84.97889338 106.03995082 84.13012563 117.52949275 78.765625 128.3984375 C71.78735838 140.30822741 62.04264286 147.32466458 48.79418945 150.93579102 C43.17802319 152.31633205 37.84910319 152.73407695 32.078125 152.7109375 C31.26279297 152.72705078 30.44746094 152.74316406 29.60742188 152.75976562 C24.57129693 152.76383687 21.13686309 152.16419 16.765625 149.3984375 C13.00665429 145.38022743 12.63687919 141.54271746 12.66796875 136.1953125 C12.67119141 135.215625 12.67441406 134.2359375 12.67773438 133.2265625 C12.69030273 131.70289063 12.69030273 131.70289063 12.703125 130.1484375 C12.70763672 129.1171875 12.71214844 128.0859375 12.71679688 127.0234375 C12.72856412 124.48171177 12.74500489 121.94010431 12.765625 119.3984375 C13.46123535 119.38385498 14.1568457 119.36927246 14.87353516 119.35424805 C18.04643838 119.27945781 21.21832508 119.18289938 24.390625 119.0859375 C25.48503906 119.06337891 26.57945313 119.04082031 27.70703125 119.01757812 C35.65593818 118.76852521 35.65593818 118.76852521 42.765625 115.3984375 C46.22482255 111.48408238 47.3785735 108.45708966 47.0859375 103.35546875 C46.39855694 99.15574119 44.97549769 96.29724974 41.55688477 93.75756836 C36.28987678 91.19293673 30.45504517 91.92896624 24.703125 91.9609375 C23.42373047 91.94095703 22.14433594 91.92097656 20.82617188 91.90039062 C18.98442383 91.90135742 18.98442383 91.90135742 17.10546875 91.90234375 C15.98519287 91.90049072 14.86491699 91.8986377 13.71069336 91.89672852 C10.70989577 92.20025766 10.70989577 92.20025766 8.39868164 93.99169922 C6.18501391 97.25412058 6.28270283 99.47690521 6.296875 103.40234375 C6.28982544 104.08086899 6.28277588 104.75939423 6.2755127 105.45848083 C6.24622738 108.34467671 6.26247985 111.2301867 6.27490234 114.11645508 C6.28859379 126.09236235 5.35681039 136.6563709 -3.30078125 145.7421875 C-9.50960423 151.06045203 -15.97279432 152.54105331 -23.984375 152.4609375 C-25.15484375 152.45191406 -26.3253125 152.44289062 -27.53125 152.43359375 C-28.42328125 152.42199219 -29.3153125 152.41039062 -30.234375 152.3984375 C-30.32798861 135.36052121 -30.39843733 118.32268566 -30.44162369 101.28457069 C-30.46221256 93.37273159 -30.49026242 85.46105267 -30.53613281 77.54931641 C-30.57611364 70.65010064 -30.6018345 63.75100094 -30.61072898 56.85167253 C-30.61592482 53.20150207 -30.62805909 49.55166353 -30.65729523 45.90159988 C-30.68973683 41.81787909 -30.69032724 37.73472829 -30.68847656 33.65087891 C-30.70285767 32.45253418 -30.71723877 31.25418945 -30.73205566 30.01953125 C-30.69194267 21.81686427 -29.53517964 14.5839939 -24.33984375 7.99609375 C-23.70691406 7.48949219 -23.07398437 6.98289062 -22.421875 6.4609375 C-21.79667969 5.93628906 -21.17148438 5.41164063 -20.52734375 4.87109375 C-13.6364239 0.44540928 -8.05205796 -0.04779587 0 0 Z M6.93701172 34.59277344 C5.33174097 37.06725916 5.42399065 38.7864983 5.47265625 41.72265625 C5.48232422 42.75068359 5.49199219 43.77871094 5.50195312 44.83789062 C5.52708984 45.90974609 5.55222656 46.98160156 5.578125 48.0859375 C5.59166016 49.16939453 5.60519531 50.25285156 5.61914062 51.36914062 C5.65451857 54.04607155 5.70388311 56.72200588 5.765625 59.3984375 C10.16133294 59.4856628 14.55681771 59.53890619 18.953125 59.5859375 C20.82194336 59.62364258 20.82194336 59.62364258 22.72851562 59.66210938 C23.93056641 59.67177734 25.13261719 59.68144531 26.37109375 59.69140625 C28.02854614 59.71497192 28.02854614 59.71497192 29.71948242 59.73901367 C34.2786526 59.22927236 36.82547668 57.33858582 40.015625 54.1484375 C42.20108268 50.71414686 42.69545757 48.46814848 42.765625 44.3984375 C41.44861192 39.8276274 39.91780317 36.78337625 35.82788086 34.20336914 C31.16423629 32.38307363 26.00686369 32.87367828 21.078125 32.9609375 C19.36786133 32.95030273 19.36786133 32.95030273 17.62304688 32.93945312 C12.01446825 32.70551624 12.01446825 32.70551624 6.93701172 34.59277344 Z " fill="#2DE68F" transform="translate(98.234375,48.6015625)"/>
<path d="M0 0 C1.0738092 -0.00287018 2.14761841 -0.00574036 3.25396729 -0.00869751 C5.51990284 -0.01073304 7.78585617 -0.00523907 10.05175781 0.00732422 C13.49064234 0.02332129 16.92834029 0.00748994 20.3671875 -0.01171875 C22.57812756 -0.009735 24.78906689 -0.0058886 27 0 C28.01495544 -0.00607269 29.02991089 -0.01214539 30.07562256 -0.0184021 C40.8584698 0.08590074 50.52459725 2.81839199 59.765625 8.3984375 C60.65507812 8.90632813 61.54453125 9.41421875 62.4609375 9.9375 C65.30731468 11.91342544 66.99557369 13.40812354 68.765625 16.3984375 C69.9353132 28.05717752 65.01445348 39.92181288 57.76171875 48.87109375 C51.81020513 54.73492393 43.32276648 59.15812868 34.875 59.5234375 C34.17890625 59.4821875 33.4828125 59.4409375 32.765625 59.3984375 C33.9103125 58.5321875 33.9103125 58.5321875 35.078125 57.6484375 C38.73941088 54.5831749 40.4090677 52.74826156 41.640625 48.0859375 C41.79113506 43.64589078 40.97890268 41.23478549 38.765625 37.3984375 C34.92590351 34.48112846 32.13757158 34.03769892 27.37109375 34.10546875 C26.16904297 34.11513672 24.96699219 34.12480469 23.72851562 34.13476562 C21.85969727 34.1724707 21.85969727 34.1724707 19.953125 34.2109375 C18.68791016 34.22447266 17.42269531 34.23800781 16.11914062 34.25195312 C13.00111956 34.28725148 9.88331786 34.34105665 6.765625 34.3984375 C6.435625 42.6484375 6.105625 50.8984375 5.765625 59.3984375 C2.5790625 59.98625 2.5790625 59.98625 -0.671875 60.5859375 C-10.41741277 62.70025699 -17.54590091 66.0135919 -23.234375 74.3984375 C-26.34745331 79.51498204 -27.9837822 84.56233776 -29.234375 90.3984375 C-29.564375 90.3984375 -29.894375 90.3984375 -30.234375 90.3984375 C-30.32742368 81.44434836 -30.39831554 72.49042797 -30.44162369 63.53595924 C-30.46241892 59.37715085 -30.49058703 55.21867542 -30.53613281 51.06005859 C-30.57988116 47.03998966 -30.60357261 43.02023919 -30.61388397 38.99995041 C-30.62122375 37.4730669 -30.63555555 35.94619905 -30.65729523 34.41945267 C-30.78960676 24.73431173 -30.57391567 15.90115402 -24.33984375 7.99609375 C-23.70691406 7.48949219 -23.07398437 6.98289062 -22.421875 6.4609375 C-21.79667969 5.93628906 -21.17148438 5.41164063 -20.52734375 4.87109375 C-13.6364239 0.44540928 -8.05205796 -0.04779587 0 0 Z " fill="#A56CFE" transform="translate(98.234375,48.6015625)"/>
<path d="M0 0 C6.36346514 1.73549049 10.32238697 6.31122295 13.7109375 11.7421875 C19.80732555 23.19150164 21.38920763 34.15646457 18.31640625 46.81640625 C14.63166842 58.32916488 7.5527447 67.13914331 -3 73 C-12.24197748 77.51451434 -21.4490265 79.35355242 -31.6875 79.3125 C-32.50283203 79.32861328 -33.31816406 79.34472656 -34.15820312 79.36132812 C-39.19432807 79.36539937 -42.62876191 78.7657525 -47 76 C-50.75897071 71.98178993 -51.12874581 68.14427996 -51.09765625 62.796875 C-51.09443359 61.8171875 -51.09121094 60.8375 -51.08789062 59.828125 C-51.07951172 58.81234375 -51.07113281 57.7965625 -51.0625 56.75 C-51.05798828 55.71875 -51.05347656 54.6875 -51.04882812 53.625 C-51.03706088 51.08327427 -51.02062011 48.54166681 -51 46 C-50.30438965 45.98541748 -49.6087793 45.97083496 -48.89208984 45.95581055 C-45.71918662 45.88102031 -42.54729992 45.78446188 -39.375 45.6875 C-37.73337891 45.65366211 -37.73337891 45.65366211 -36.05859375 45.61914062 C-28.10968682 45.37008771 -28.10968682 45.37008771 -21 42 C-17.54080245 38.08564488 -16.3870515 35.05865216 -16.6796875 29.95703125 C-17.36848474 25.74864814 -18.89842753 22.93957652 -22.125 20.1875 C-26.02676881 18.57589984 -29.81274275 18.26455438 -34 18 C-30.9118541 15.94123606 -28.68547481 15.30646896 -25.125 14.375 C-15.55543755 11.52768052 -7.68487564 6.32872111 0 0 Z " fill="#2EE58F" transform="translate(162,122)"/>
<path d="M0 0 C5.78000129 -0.07475627 11.55971446 -0.12888603 17.34008789 -0.16479492 C19.3020519 -0.17978159 21.26398298 -0.20017793 23.22583008 -0.22631836 C37.85921068 -0.41626552 50.15575051 0.24420717 63 8 C63.88945312 8.50789063 64.77890625 9.01578125 65.6953125 9.5390625 C68.54168968 11.51498794 70.22994869 13.00968604 72 16 C73.1696882 27.65874002 68.24882848 39.52337538 60.99609375 48.47265625 C55.04458013 54.33648643 46.55714148 58.75969118 38.109375 59.125 C37.41328125 59.08375 36.7171875 59.0425 36 59 C36.763125 58.4225 37.52625 57.845 38.3125 57.25 C41.88585867 54.25835088 43.62811951 52.43030958 44.8125 47.875 C45.31163768 37.55948786 41.72528395 29.71790377 35.21484375 21.83984375 C27.10909095 13.20147475 16.83769504 8.24307081 6.1875 3.48046875 C3 2 3 2 0 0 Z " fill="#8E5BF2" transform="translate(95,49)"/>
<path d="M0 0 C3.92117276 1.30705759 6.57631657 2.58888999 9 6 C10.06398301 16.46249962 6.75283407 26.60911345 0.50390625 35.01171875 C-6.28665169 42.51878641 -15.07841588 45.44461733 -24.98046875 45.95703125 C-25.98013672 45.97830078 -25.98013672 45.97830078 -27 46 C-26.01 45.34 -25.02 44.68 -24 44 C-19.4812038 40.76809087 -19.4812038 40.76809087 -17 36 C-16.54933018 30.41169427 -16.77059519 26.78842782 -20 22 C-24.1461244 18.46359978 -28.76213856 18.33093242 -34 18 C-30.9118541 15.94123606 -28.68547481 15.30646896 -25.125 14.375 C-15.55543755 11.52768052 -7.68487564 6.32872111 0 0 Z " fill="#A46DFD" transform="translate(162,122)"/>
</svg>
